<svg id="Layer_1" data-name="Layer 1" xmlns="http://www.w3.org/2000/svg" viewBox="0 0 881.3 883.2"><defs><style>.cls-1{fill:#4d3a22;}.cls-2{fill:#523e24;}.cls-3{fill:#574226;}.cls-4{fill:#e06439;}.cls-5{fill:#ff7140;}.cls-6{fill:#5d4729;}.cls-7{fill:#fff;}.cls-8{fill:#e0e0e0;}.cls-9{fill:#414042;}</style></defs><title>boat</title><path class="cls-1" d="M1251.8,974.6h90.7s17.1-2,17.1-12.5V910.6s.7-9.6-14.1-9.6Z" transform="translate(-519.2 -98.2)"/><path class="cls-2" d="M895.5,609.8a13.38,13.38,0,0,1-2.6-4.3,11.81,11.81,0,0,1,7.4-15l216-73.3a11.83,11.83,0,0,1,7.6,22.4l-216,73.3A12,12,0,0,1,895.5,609.8Z" transform="translate(-519.2 -98.2)"/><path class="cls-1" d="M919.6,122.1a15.19,15.19,0,0,0-15.2-15.2V774.4h15.2Z" transform="translate(-519.2 -98.2)"/><path class="cls-3" d="M889.1,122.1V774.4h15.2V106.9A15.19,15.19,0,0,0,889.1,122.1Z" transform="translate(-519.2 -98.2)"/><path class="cls-4" d="M1374.2,790.8H542.3s3.6,12,12.7,30l817.2,4.2A281.16,281.16,0,0,0,1374.2,790.8Z" transform="translate(-519.2 -98.2)"/><path class="cls-5" d="M555,820.9A284.9,284.9,0,0,0,607.5,893h745.7c9.1-18.5,15.9-40.9,19.1-67.9Z" transform="translate(-519.2 -98.2)"/><path class="cls-6" d="M607.5,893c45.2,45.2,118.7,88.4,234.7,88.4h377.2s91.5-2.6,133.8-88.4Z" transform="translate(-519.2 -98.2)"/><path class="cls-6" d="M1393.5,790.8a16.41,16.41,0,0,1-16.4,16.4H535.6a16.41,16.41,0,0,1-16.4-16.4h0a16.41,16.41,0,0,1,16.4-16.4h841.5a16.41,16.41,0,0,1,16.4,16.4Z" transform="translate(-519.2 -98.2)"/><path class="cls-6" d="M612,708.7a15,15,0,0,1-3.4-5.6,15.24,15.24,0,0,1,9.5-19.3l278-94.3a15.21,15.21,0,0,1,9.8,28.8l-278,94.3A14.82,14.82,0,0,1,612,708.7Z" transform="translate(-519.2 -98.2)"/><path class="cls-6" d="M1390.4,657.1H1231v20.2h159.4a10.1,10.1,0,0,0,0-20.2Z" transform="translate(-519.2 -98.2)"/><path class="cls-6" d="M989.5,680.6h211V653.8h-211a13.4,13.4,0,1,0,0,26.8Z" transform="translate(-519.2 -98.2)"/><path class="cls-7" d="M889.1,189.2s-50.6,309.1-236.4,483l172.8-58.6C825.5,613.5,886.2,532.5,889.1,189.2Z" transform="translate(-519.2 -98.2)"/><path class="cls-7" d="M919.6,268s7.6,259.2,76.3,289.9l94.3-32S957.3,503.1,919.6,268Z" transform="translate(-519.2 -98.2)"/><path class="cls-7" d="M1231,336.8s30.6,253.6,122.2,320.3H1260S1240.7,600.9,1231,336.8Z" transform="translate(-519.2 -98.2)"/><path class="cls-7" d="M1143,653.8s47.4-30.7,57.5-169c0,0-35.1,119.4-145.3,169Z" transform="translate(-519.2 -98.2)"/><path class="cls-8" d="M1231,336.8V657.1h72.5C1303.6,657.1,1241.7,605.7,1231,336.8Z" transform="translate(-519.2 -98.2)"/><path class="cls-8" d="M1200.6,484.8s-16,133.7-65.3,169.4l65.3-.4Z" transform="translate(-519.2 -98.2)"/><path class="cls-3" d="M1200.6,191.9V774.4h15.2V176.7A15.19,15.19,0,0,0,1200.6,191.9Z" transform="translate(-519.2 -98.2)"/><path class="cls-1" d="M1231,191.9a15.19,15.19,0,0,0-15.2-15.2V774.4H1231Z" transform="translate(-519.2 -98.2)"/><path class="cls-9" d="M1234.7,254.7V186.9a18.9,18.9,0,0,0-37.8,0v67.8Z" transform="translate(-519.2 -98.2)"/><path class="cls-9" d="M923.3,184.9V117.1a18.9,18.9,0,1,0-37.8,0v67.8Z" transform="translate(-519.2 -98.2)"/><rect class="cls-9" x="515.6" y="552.6" width="59.8" height="32.7"/><rect class="cls-9" x="792.1" y="557.1" width="43.4" height="23.8"/><path class="cls-8" d="M919.6,268s14.9,250.6,85.3,286.9l-85.3,28.9Z" transform="translate(-519.2 -98.2)"/><path class="cls-8" d="M889.1,189.2V591.9l-72.7,24.7C816.4,616.5,867.3,520.3,889.1,189.2Z" transform="translate(-519.2 -98.2)"/><polygon class="cls-9" points="197.5 548.3 210.6 584.7 274.6 563 261.6 526.5 197.5 548.3"/></svg>