<svg id="Layer_1" data-name="Layer 1" xmlns="http://www.w3.org/2000/svg" viewBox="0 0 2063 360"><defs><style>.cls-1{fill:#0096ff;}.cls-2{fill:none;stroke:#0096ff;stroke-miterlimit:10;stroke-width:70px;}</style></defs><title>wave3</title><rect class="cls-1" x="4.29" y="69" width="2058.71" height="291"/><path class="cls-2" d="M-71,395c40.37,0,80.73,68,121.1,68s80.73-68,121.1-68,80.74,68,121.1,68S373,395,413.4,395s80.74,68,121.1,68,80.74-68,121.1-68,80.74,68,121.1,68,80.74-68,121.11-68,80.73,68,121.1,68,80.73-68,121.1-68,80.73,68,121.1,68,80.73-68,121.1-68,80.73,68,121.1,68,80.73-68,121.1-68,80.73,68,121.1,68,80.73-68,121.1-68,80.73,68,121.1,68" transform="translate(71 -360)"/></svg>