<svg id="Layer_1" data-name="Layer 1" xmlns="http://www.w3.org/2000/svg" viewBox="0 0 2051 360"><defs><style>.cls-1{fill:#29abe2;}.cls-2{fill:none;stroke:#29abe2;stroke-miterlimit:10;stroke-width:70px;}</style></defs><title>wave4</title><rect class="cls-1" x="4.26" y="69" width="2046.74" height="291"/><path class="cls-2" d="M-65,395c40.13,0,80.26,68,120.4,68s80.26-68,120.39-68,80.27,68,120.4,68,80.26-68,120.39-68,80.27,68,120.4,68,80.27-68,120.4-68,80.26,68,120.39,68,80.27-68,120.4-68,80.26,68,120.4,68,80.26-68,120.39-68,80.27,68,120.4,68,80.26-68,120.39-68,80.27,68,120.4,68,80.27-68,120.4-68,80.26,68,120.39,68,80.27-68,120.4-68,80.26,68,120.4,68" transform="translate(65 -360)"/></svg>