<svg id="Layer_1" data-name="Layer 1" xmlns="http://www.w3.org/2000/svg" viewBox="0 0 2219.24 400"><defs><style>.cls-1{fill:#0071bc;}.cls-1,.cls-2{stroke:#0071bc;stroke-miterlimit:10;}.cls-2{fill:none;stroke-width:70px;}</style></defs><title>wave2</title><rect class="cls-1" x="-146.39" y="429.04" width="2213.39" height="291" transform="translate(159.71 -357.29) rotate(1.02)"/><path class="cls-2" d="M-147.62,375.25c43.39.78,85.57,69.54,129,70.31s88-66.44,131.39-65.66,85.58,69.53,129,70.31,88-66.44,131.39-65.67,85.57,69.54,129,70.31,88-66.44,131.39-65.67,85.57,69.54,129,70.31,88-66.44,131.39-65.66,85.57,69.53,129,70.31,88-66.44,131.39-65.67,85.58,69.54,129,70.31,88-66.44,131.39-65.67,85.57,69.54,129,70.31,88-66.44,131.39-65.66,85.57,69.53,129,70.31,88-66.44,131.4-65.67,85.57,69.54,129,70.31" transform="translate(149.32 -340.26)"/></svg>