<svg id="Layer_1" data-name="Layer 1" xmlns="http://www.w3.org/2000/svg" viewBox="0 0 2438.13 362.25"><defs><style>.cls-1{fill:#2e3192;stroke:#0071bc;}.cls-1,.cls-2{stroke-miterlimit:10;}.cls-2{fill:none;stroke:#2e3192;stroke-width:70px;}</style></defs><title>wave1</title><rect class="cls-1" x="0.6" y="69.87" width="2436.92" height="291"/><path class="cls-2" d="M-258,394.21c47.69,0,95.33,68.07,143,68.1s95.42-67.93,143.11-67.9,95.32,68.07,143,68.11,95.42-67.94,143.11-67.9,95.32,68.07,143,68.1,95.42-67.93,143.11-67.9,95.32,68.07,143,68.11S838.82,395,886.51,395s95.32,68.07,143,68.1,95.42-67.93,143.11-67.89,95.32,68.06,143,68.1,95.42-67.93,143.11-67.9,95.32,68.07,143,68.1,95.42-67.93,143.11-67.89,95.33,68.07,143,68.1,95.42-67.93,143.11-67.9,95.33,68.07,143,68.11" transform="translate(258.53 -359.21)"/></svg>